<svg width="24" height="24" viewBox="858.2 543.5 120.5 120.5" fill="none" xmlns="http://www.w3.org/2000/svg">
<path d="M 866.640625 545.546875 C 863.09375 545.546875 860.21875 548.421875 860.21875 551.96875 C 860.21875 555.515625 863.09375 558.390625 866.640625 558.390625 C 870.1875 558.390625 873.0625 555.515625 873.0625 551.96875 C 873.0625 548.421875 870.1875 545.546875 866.640625 545.546875 " fill="#282A30"/>
<path d="M 887.746094 545.546875 C 884.199219 545.546875 881.324219 548.421875 881.324219 551.96875 C 881.324219 555.515625 884.199219 558.390625 887.746094 558.390625 C 891.292969 558.390625 894.167969 555.515625 894.167969 551.96875 C 894.167969 548.421875 891.292969 545.546875 887.746094 545.546875 " fill="#282A30"/>
<path d="M 908.851562 554.433594 C 910.210938 554.433594 911.316406 553.328125 911.316406 551.96875 C 911.316406 550.609375 910.210938 549.507812 908.851562 549.507812 C 907.492188 549.507812 906.390625 550.609375 906.390625 551.96875 C 906.390625 553.328125 907.492188 554.433594 908.851562 554.433594 " fill="#282A30"/>
<path d="M 866.640625 569.1875 C 864.464844 569.1875 862.699219 570.949219 862.699219 573.128906 C 862.699219 575.304688 864.464844 577.070312 866.640625 577.070312 C 868.816406 577.070312 870.582031 575.304688 870.582031 573.128906 C 870.582031 570.949219 868.816406 569.1875 866.640625 569.1875 " fill="#282A30"/>
<path d="M 887.746094 566.703125 C 884.199219 566.703125 881.324219 569.578125 881.324219 573.128906 C 881.324219 576.675781 884.199219 579.550781 887.746094 579.550781 C 891.292969 579.550781 894.167969 576.675781 894.167969 573.128906 C 894.167969 569.578125 891.292969 566.703125 887.746094 566.703125 " fill="#282A30"/>
<path d="M 908.851562 577.070312 C 911.03125 577.070312 912.796875 575.304688 912.796875 573.128906 C 912.796875 570.949219 911.03125 569.1875 908.851562 569.1875 C 906.675781 569.1875 904.910156 570.949219 904.910156 573.128906 C 904.910156 575.304688 906.675781 577.070312 908.851562 577.070312 " fill="#282A30"/>
<path d="M 866.640625 591.765625 C 865.28125 591.765625 864.175781 592.871094 864.175781 594.230469 C 864.175781 595.589844 865.28125 596.695312 866.640625 596.695312 C 868 596.695312 869.105469 595.589844 869.105469 594.230469 C 869.105469 592.871094 868 591.765625 866.640625 591.765625 " fill="#282A30"/>
<path d="M 887.746094 587.808594 C 884.199219 587.808594 881.324219 590.683594 881.324219 594.230469 C 881.324219 597.777344 884.199219 600.652344 887.746094 600.652344 C 891.292969 600.652344 894.167969 597.777344 894.167969 594.230469 C 894.167969 590.683594 891.292969 587.808594 887.746094 587.808594 " fill="#282A30"/>
<path d="M 908.851562 587.808594 C 905.304688 587.808594 902.429688 590.683594 902.429688 594.230469 C 902.429688 597.777344 905.304688 600.652344 908.851562 600.652344 C 912.398438 600.652344 915.277344 597.777344 915.277344 594.230469 C 915.277344 590.683594 912.398438 587.808594 908.851562 587.808594 " fill="#282A30"/>
<path d="M 929.996094 554.433594 C 931.355469 554.433594 932.457031 553.328125 932.457031 551.96875 C 932.457031 550.609375 931.355469 549.503906 929.996094 549.503906 C 928.636719 549.503906 927.53125 550.609375 927.53125 551.96875 C 927.53125 553.328125 928.636719 554.433594 929.996094 554.433594 " fill="#282A30"/>
<path d="M 951.101562 545.546875 C 947.554688 545.546875 944.679688 548.421875 944.679688 551.96875 C 944.679688 555.515625 947.554688 558.390625 951.101562 558.390625 C 954.648438 558.390625 957.523438 555.515625 957.523438 551.96875 C 957.523438 548.421875 954.648438 545.546875 951.101562 545.546875 " fill="#282A30"/>
<path d="M 972.207031 545.546875 C 968.660156 545.546875 965.785156 548.421875 965.785156 551.96875 C 965.785156 555.515625 968.660156 558.390625 972.207031 558.390625 C 975.753906 558.390625 978.628906 555.515625 978.628906 551.96875 C 978.628906 548.421875 975.753906 545.546875 972.207031 545.546875 " fill="#282A30"/>
<path d="M 929.996094 577.070312 C 932.171875 577.070312 933.9375 575.304688 933.9375 573.128906 C 933.9375 570.949219 932.171875 569.183594 929.996094 569.183594 C 927.816406 569.183594 926.054688 570.949219 926.054688 573.128906 C 926.054688 575.304688 927.816406 577.070312 929.996094 577.070312 " fill="#282A30"/>
<path d="M 951.101562 566.703125 C 947.554688 566.703125 944.679688 569.582031 944.679688 573.128906 C 944.679688 576.675781 947.554688 579.550781 951.101562 579.550781 C 954.648438 579.550781 957.523438 576.675781 957.523438 573.128906 C 957.523438 569.582031 954.648438 566.703125 951.101562 566.703125 " fill="#282A30"/>
<path d="M 972.207031 569.1875 C 970.03125 569.1875 968.265625 570.949219 968.265625 573.128906 C 968.265625 575.304688 970.03125 577.070312 972.207031 577.070312 C 974.382812 577.070312 976.148438 575.304688 976.148438 573.128906 C 976.148438 570.949219 974.382812 569.1875 972.207031 569.1875 " fill="#282A30"/>
<path d="M 951.101562 587.808594 C 947.554688 587.808594 944.679688 590.683594 944.679688 594.230469 C 944.679688 597.777344 947.554688 600.652344 951.101562 600.652344 C 954.648438 600.652344 957.523438 597.777344 957.523438 594.230469 C 957.523438 590.683594 954.648438 587.808594 951.101562 587.808594 " fill="#282A30"/>
<path d="M 972.207031 591.765625 C 970.847656 591.765625 969.742188 592.871094 969.742188 594.230469 C 969.742188 595.589844 970.847656 596.695312 972.207031 596.695312 C 973.566406 596.695312 974.671875 595.589844 974.671875 594.230469 C 974.671875 592.871094 973.566406 591.765625 972.207031 591.765625 " fill="#282A30"/>
<path d="M 929.996094 587.808594 C 926.449219 587.808594 923.570312 590.683594 923.570312 594.230469 C 923.570312 597.777344 926.449219 600.652344 929.996094 600.652344 C 933.542969 600.652344 936.417969 597.777344 936.417969 594.230469 C 936.417969 590.683594 933.542969 587.808594 929.996094 587.808594 " fill="#282A30"/>
<path d="M 866.640625 612.875 C 865.28125 612.875 864.175781 613.976562 864.175781 615.335938 C 864.175781 616.695312 865.28125 617.800781 866.640625 617.800781 C 868 617.800781 869.105469 616.695312 869.105469 615.335938 C 869.105469 613.976562 868 612.875 866.640625 612.875 " fill="#282A30"/>
<path d="M 887.746094 611.394531 C 885.570312 611.394531 883.804688 613.160156 883.804688 615.335938 C 883.804688 617.515625 885.570312 619.277344 887.746094 619.277344 C 889.925781 619.277344 891.6875 617.515625 891.6875 615.335938 C 891.6875 613.160156 889.925781 611.394531 887.746094 611.394531 " fill="#282A30"/>
<path d="M 908.851562 608.914062 C 905.304688 608.914062 902.429688 611.789062 902.429688 615.335938 C 902.429688 618.882812 905.304688 621.757812 908.851562 621.757812 C 912.398438 621.757812 915.277344 618.882812 915.277344 615.335938 C 915.277344 611.789062 912.398438 608.914062 908.851562 608.914062 " fill="#282A30"/>
<path d="M 866.640625 633.980469 C 865.28125 633.980469 864.175781 635.082031 864.175781 636.441406 C 864.175781 637.804688 865.28125 638.90625 866.640625 638.90625 C 868 638.90625 869.105469 637.804688 869.105469 636.441406 C 869.105469 635.082031 868 633.980469 866.640625 633.980469 " fill="#282A30"/>
<path d="M 887.746094 633.980469 C 886.386719 633.980469 885.28125 635.082031 885.28125 636.441406 C 885.28125 637.804688 886.386719 638.90625 887.746094 638.90625 C 889.105469 638.90625 890.210938 637.804688 890.210938 636.441406 C 890.210938 635.082031 889.105469 633.980469 887.746094 633.980469 " fill="#282A30"/>
<path d="M 908.851562 630.019531 C 905.304688 630.019531 902.429688 632.894531 902.429688 636.441406 C 902.429688 639.988281 905.304688 642.867188 908.851562 642.867188 C 912.398438 642.867188 915.277344 639.988281 915.277344 636.441406 C 915.277344 632.894531 912.398438 630.019531 908.851562 630.019531 " fill="#282A30"/>
<path d="M 866.640625 655.136719 C 865.28125 655.136719 864.175781 656.242188 864.175781 657.601562 C 864.175781 658.960938 865.28125 660.066406 866.640625 660.066406 C 868 660.066406 869.105469 658.960938 869.105469 657.601562 C 869.105469 656.242188 868 655.136719 866.640625 655.136719 " fill="#282A30"/>
<path d="M 887.746094 655.136719 C 886.386719 655.136719 885.28125 656.242188 885.28125 657.601562 C 885.28125 658.960938 886.386719 660.066406 887.746094 660.066406 C 889.105469 660.066406 890.210938 658.960938 890.210938 657.601562 C 890.210938 656.242188 889.105469 655.136719 887.746094 655.136719 " fill="#282A30"/>
<path d="M 908.851562 651.179688 C 905.304688 651.179688 902.429688 654.054688 902.429688 657.601562 C 902.429688 661.148438 905.304688 664.023438 908.851562 664.023438 C 912.398438 664.023438 915.277344 661.148438 915.277344 657.601562 C 915.277344 654.054688 912.398438 651.179688 908.851562 651.179688 " fill="#282A30"/>
<path d="M 929.996094 608.914062 C 926.449219 608.914062 923.570312 611.789062 923.570312 615.335938 C 923.570312 618.882812 926.449219 621.757812 929.996094 621.757812 C 933.542969 621.757812 936.417969 618.882812 936.417969 615.335938 C 936.417969 611.789062 933.542969 608.914062 929.996094 608.914062 " fill="#282A30"/>
<path d="M 951.101562 611.394531 C 948.925781 611.394531 947.160156 613.160156 947.160156 615.335938 C 947.160156 617.515625 948.925781 619.277344 951.101562 619.277344 C 953.277344 619.277344 955.042969 617.515625 955.042969 615.335938 C 955.042969 613.160156 953.277344 611.394531 951.101562 611.394531 " fill="#282A30"/>
<path d="M 972.207031 612.871094 C 970.847656 612.871094 969.742188 613.976562 969.742188 615.335938 C 969.742188 616.695312 970.847656 617.800781 972.207031 617.800781 C 973.566406 617.800781 974.671875 616.695312 974.671875 615.335938 C 974.671875 613.976562 973.566406 612.871094 972.207031 612.871094 " fill="#282A30"/>
<path d="M 929.996094 630.019531 C 926.449219 630.019531 923.570312 632.894531 923.570312 636.441406 C 923.570312 639.988281 926.449219 642.863281 929.996094 642.863281 C 933.542969 642.863281 936.417969 639.988281 936.417969 636.441406 C 936.417969 632.894531 933.542969 630.019531 929.996094 630.019531 " fill="#282A30"/>
<path d="M 951.101562 633.980469 C 949.742188 633.980469 948.636719 635.082031 948.636719 636.441406 C 948.636719 637.804688 949.742188 638.90625 951.101562 638.90625 C 952.460938 638.90625 953.566406 637.804688 953.566406 636.441406 C 953.566406 635.082031 952.460938 633.980469 951.101562 633.980469 " fill="#282A30"/>
<path d="M 972.207031 633.980469 C 970.847656 633.980469 969.742188 635.082031 969.742188 636.441406 C 969.742188 637.804688 970.847656 638.90625 972.207031 638.90625 C 973.566406 638.90625 974.671875 637.804688 974.671875 636.441406 C 974.671875 635.082031 973.566406 633.980469 972.207031 633.980469 " fill="#282A30"/>
<path d="M 929.996094 651.179688 C 926.449219 651.179688 923.570312 654.054688 923.570312 657.601562 C 923.570312 661.148438 926.449219 664.023438 929.996094 664.023438 C 933.542969 664.023438 936.417969 661.148438 936.417969 657.601562 C 936.417969 654.054688 933.542969 651.179688 929.996094 651.179688 " fill="#282A30"/>
<path d="M 951.101562 655.136719 C 949.742188 655.136719 948.636719 656.242188 948.636719 657.601562 C 948.636719 658.960938 949.742188 660.066406 951.101562 660.066406 C 952.460938 660.066406 953.566406 658.960938 953.566406 657.601562 C 953.566406 656.242188 952.460938 655.136719 951.101562 655.136719 " fill="#282A30"/>
<path d="M 972.207031 655.136719 C 970.847656 655.136719 969.742188 656.242188 969.742188 657.601562 C 969.742188 658.960938 970.847656 660.066406 972.207031 660.066406 C 973.566406 660.066406 974.671875 658.960938 974.671875 657.601562 C 974.671875 656.242188 973.566406 655.136719 972.207031 655.136719 " fill="#282A30"/>
</svg>
