<svg width="90" height="20" viewBox="857.2 535.5 686.9 152.2" fill="none" xmlns="http://www.w3.org/2000/svg">
<path d="M 866.640625 545.546875 C 863.09375 545.546875 860.21875 548.421875 860.21875 551.96875 C 860.21875 555.515625 863.09375 558.390625 866.640625 558.390625 C 870.1875 558.390625 873.0625 555.515625 873.0625 551.96875 C 873.0625 548.421875 870.1875 545.546875 866.640625 545.546875 " fill="#FAFAFA"/>
<path d="M 887.746094 545.546875 C 884.199219 545.546875 881.324219 548.421875 881.324219 551.96875 C 881.324219 555.515625 884.199219 558.390625 887.746094 558.390625 C 891.292969 558.390625 894.167969 555.515625 894.167969 551.96875 C 894.167969 548.421875 891.292969 545.546875 887.746094 545.546875 " fill="#FAFAFA"/>
<path d="M 908.851562 554.433594 C 910.210938 554.433594 911.316406 553.328125 911.316406 551.96875 C 911.316406 550.609375 910.210938 549.507812 908.851562 549.507812 C 907.492188 549.507812 906.390625 550.609375 906.390625 551.96875 C 906.390625 553.328125 907.492188 554.433594 908.851562 554.433594 " fill="#FAFAFA"/>
<path d="M 866.640625 569.1875 C 864.464844 569.1875 862.699219 570.949219 862.699219 573.128906 C 862.699219 575.304688 864.464844 577.070312 866.640625 577.070312 C 868.816406 577.070312 870.582031 575.304688 870.582031 573.128906 C 870.582031 570.949219 868.816406 569.1875 866.640625 569.1875 " fill="#FAFAFA"/>
<path d="M 887.746094 566.703125 C 884.199219 566.703125 881.324219 569.578125 881.324219 573.128906 C 881.324219 576.675781 884.199219 579.550781 887.746094 579.550781 C 891.292969 579.550781 894.167969 576.675781 894.167969 573.128906 C 894.167969 569.578125 891.292969 566.703125 887.746094 566.703125 " fill="#FAFAFA"/>
<path d="M 908.851562 577.070312 C 911.03125 577.070312 912.796875 575.304688 912.796875 573.128906 C 912.796875 570.949219 911.03125 569.1875 908.851562 569.1875 C 906.675781 569.1875 904.910156 570.949219 904.910156 573.128906 C 904.910156 575.304688 906.675781 577.070312 908.851562 577.070312 " fill="#FAFAFA"/>
<path d="M 866.640625 591.765625 C 865.28125 591.765625 864.175781 592.871094 864.175781 594.230469 C 864.175781 595.589844 865.28125 596.695312 866.640625 596.695312 C 868 596.695312 869.105469 595.589844 869.105469 594.230469 C 869.105469 592.871094 868 591.765625 866.640625 591.765625 " fill="#FAFAFA"/>
<path d="M 887.746094 587.808594 C 884.199219 587.808594 881.324219 590.683594 881.324219 594.230469 C 881.324219 597.777344 884.199219 600.652344 887.746094 600.652344 C 891.292969 600.652344 894.167969 597.777344 894.167969 594.230469 C 894.167969 590.683594 891.292969 587.808594 887.746094 587.808594 " fill="#FAFAFA"/>
<path d="M 908.851562 587.808594 C 905.304688 587.808594 902.429688 590.683594 902.429688 594.230469 C 902.429688 597.777344 905.304688 600.652344 908.851562 600.652344 C 912.398438 600.652344 915.277344 597.777344 915.277344 594.230469 C 915.277344 590.683594 912.398438 587.808594 908.851562 587.808594 " fill="#FAFAFA"/>
<path d="M 929.996094 554.433594 C 931.355469 554.433594 932.457031 553.328125 932.457031 551.96875 C 932.457031 550.609375 931.355469 549.503906 929.996094 549.503906 C 928.636719 549.503906 927.53125 550.609375 927.53125 551.96875 C 927.53125 553.328125 928.636719 554.433594 929.996094 554.433594 " fill="#FAFAFA"/>
<path d="M 951.101562 545.546875 C 947.554688 545.546875 944.679688 548.421875 944.679688 551.96875 C 944.679688 555.515625 947.554688 558.390625 951.101562 558.390625 C 954.648438 558.390625 957.523438 555.515625 957.523438 551.96875 C 957.523438 548.421875 954.648438 545.546875 951.101562 545.546875 " fill="#FAFAFA"/>
<path d="M 972.207031 545.546875 C 968.660156 545.546875 965.785156 548.421875 965.785156 551.96875 C 965.785156 555.515625 968.660156 558.390625 972.207031 558.390625 C 975.753906 558.390625 978.628906 555.515625 978.628906 551.96875 C 978.628906 548.421875 975.753906 545.546875 972.207031 545.546875 " fill="#FAFAFA"/>
<path d="M 929.996094 577.070312 C 932.171875 577.070312 933.9375 575.304688 933.9375 573.128906 C 933.9375 570.949219 932.171875 569.183594 929.996094 569.183594 C 927.816406 569.183594 926.054688 570.949219 926.054688 573.128906 C 926.054688 575.304688 927.816406 577.070312 929.996094 577.070312 " fill="#FAFAFA"/>
<path d="M 951.101562 566.703125 C 947.554688 566.703125 944.679688 569.582031 944.679688 573.128906 C 944.679688 576.675781 947.554688 579.550781 951.101562 579.550781 C 954.648438 579.550781 957.523438 576.675781 957.523438 573.128906 C 957.523438 569.582031 954.648438 566.703125 951.101562 566.703125 " fill="#FAFAFA"/>
<path d="M 972.207031 569.1875 C 970.03125 569.1875 968.265625 570.949219 968.265625 573.128906 C 968.265625 575.304688 970.03125 577.070312 972.207031 577.070312 C 974.382812 577.070312 976.148438 575.304688 976.148438 573.128906 C 976.148438 570.949219 974.382812 569.1875 972.207031 569.1875 " fill="#FAFAFA"/>
<path d="M 951.101562 587.808594 C 947.554688 587.808594 944.679688 590.683594 944.679688 594.230469 C 944.679688 597.777344 947.554688 600.652344 951.101562 600.652344 C 954.648438 600.652344 957.523438 597.777344 957.523438 594.230469 C 957.523438 590.683594 954.648438 587.808594 951.101562 587.808594 " fill="#FAFAFA"/>
<path d="M 972.207031 591.765625 C 970.847656 591.765625 969.742188 592.871094 969.742188 594.230469 C 969.742188 595.589844 970.847656 596.695312 972.207031 596.695312 C 973.566406 596.695312 974.671875 595.589844 974.671875 594.230469 C 974.671875 592.871094 973.566406 591.765625 972.207031 591.765625 " fill="#FAFAFA"/>
<path d="M 929.996094 587.808594 C 926.449219 587.808594 923.570312 590.683594 923.570312 594.230469 C 923.570312 597.777344 926.449219 600.652344 929.996094 600.652344 C 933.542969 600.652344 936.417969 597.777344 936.417969 594.230469 C 936.417969 590.683594 933.542969 587.808594 929.996094 587.808594 " fill="#FAFAFA"/>
<path d="M 866.640625 612.875 C 865.28125 612.875 864.175781 613.976562 864.175781 615.335938 C 864.175781 616.695312 865.28125 617.800781 866.640625 617.800781 C 868 617.800781 869.105469 616.695312 869.105469 615.335938 C 869.105469 613.976562 868 612.875 866.640625 612.875 " fill="#FAFAFA"/>
<path d="M 887.746094 611.394531 C 885.570312 611.394531 883.804688 613.160156 883.804688 615.335938 C 883.804688 617.515625 885.570312 619.277344 887.746094 619.277344 C 889.925781 619.277344 891.6875 617.515625 891.6875 615.335938 C 891.6875 613.160156 889.925781 611.394531 887.746094 611.394531 " fill="#FAFAFA"/>
<path d="M 908.851562 608.914062 C 905.304688 608.914062 902.429688 611.789062 902.429688 615.335938 C 902.429688 618.882812 905.304688 621.757812 908.851562 621.757812 C 912.398438 621.757812 915.277344 618.882812 915.277344 615.335938 C 915.277344 611.789062 912.398438 608.914062 908.851562 608.914062 " fill="#FAFAFA"/>
<path d="M 866.640625 633.980469 C 865.28125 633.980469 864.175781 635.082031 864.175781 636.441406 C 864.175781 637.804688 865.28125 638.90625 866.640625 638.90625 C 868 638.90625 869.105469 637.804688 869.105469 636.441406 C 869.105469 635.082031 868 633.980469 866.640625 633.980469 " fill="#FAFAFA"/>
<path d="M 887.746094 633.980469 C 886.386719 633.980469 885.28125 635.082031 885.28125 636.441406 C 885.28125 637.804688 886.386719 638.90625 887.746094 638.90625 C 889.105469 638.90625 890.210938 637.804688 890.210938 636.441406 C 890.210938 635.082031 889.105469 633.980469 887.746094 633.980469 " fill="#FAFAFA"/>
<path d="M 908.851562 630.019531 C 905.304688 630.019531 902.429688 632.894531 902.429688 636.441406 C 902.429688 639.988281 905.304688 642.867188 908.851562 642.867188 C 912.398438 642.867188 915.277344 639.988281 915.277344 636.441406 C 915.277344 632.894531 912.398438 630.019531 908.851562 630.019531 " fill="#FAFAFA"/>
<path d="M 866.640625 655.136719 C 865.28125 655.136719 864.175781 656.242188 864.175781 657.601562 C 864.175781 658.960938 865.28125 660.066406 866.640625 660.066406 C 868 660.066406 869.105469 658.960938 869.105469 657.601562 C 869.105469 656.242188 868 655.136719 866.640625 655.136719 " fill="#FAFAFA"/>
<path d="M 887.746094 655.136719 C 886.386719 655.136719 885.28125 656.242188 885.28125 657.601562 C 885.28125 658.960938 886.386719 660.066406 887.746094 660.066406 C 889.105469 660.066406 890.210938 658.960938 890.210938 657.601562 C 890.210938 656.242188 889.105469 655.136719 887.746094 655.136719 " fill="#FAFAFA"/>
<path d="M 908.851562 651.179688 C 905.304688 651.179688 902.429688 654.054688 902.429688 657.601562 C 902.429688 661.148438 905.304688 664.023438 908.851562 664.023438 C 912.398438 664.023438 915.277344 661.148438 915.277344 657.601562 C 915.277344 654.054688 912.398438 651.179688 908.851562 651.179688 " fill="#FAFAFA"/>
<path d="M 929.996094 608.914062 C 926.449219 608.914062 923.570312 611.789062 923.570312 615.335938 C 923.570312 618.882812 926.449219 621.757812 929.996094 621.757812 C 933.542969 621.757812 936.417969 618.882812 936.417969 615.335938 C 936.417969 611.789062 933.542969 608.914062 929.996094 608.914062 " fill="#FAFAFA"/>
<path d="M 951.101562 611.394531 C 948.925781 611.394531 947.160156 613.160156 947.160156 615.335938 C 947.160156 617.515625 948.925781 619.277344 951.101562 619.277344 C 953.277344 619.277344 955.042969 617.515625 955.042969 615.335938 C 955.042969 613.160156 953.277344 611.394531 951.101562 611.394531 " fill="#FAFAFA"/>
<path d="M 972.207031 612.871094 C 970.847656 612.871094 969.742188 613.976562 969.742188 615.335938 C 969.742188 616.695312 970.847656 617.800781 972.207031 617.800781 C 973.566406 617.800781 974.671875 616.695312 974.671875 615.335938 C 974.671875 613.976562 973.566406 612.871094 972.207031 612.871094 " fill="#FAFAFA"/>
<path d="M 929.996094 630.019531 C 926.449219 630.019531 923.570312 632.894531 923.570312 636.441406 C 923.570312 639.988281 926.449219 642.863281 929.996094 642.863281 C 933.542969 642.863281 936.417969 639.988281 936.417969 636.441406 C 936.417969 632.894531 933.542969 630.019531 929.996094 630.019531 " fill="#FAFAFA"/>
<path d="M 951.101562 633.980469 C 949.742188 633.980469 948.636719 635.082031 948.636719 636.441406 C 948.636719 637.804688 949.742188 638.90625 951.101562 638.90625 C 952.460938 638.90625 953.566406 637.804688 953.566406 636.441406 C 953.566406 635.082031 952.460938 633.980469 951.101562 633.980469 " fill="#FAFAFA"/>
<path d="M 972.207031 633.980469 C 970.847656 633.980469 969.742188 635.082031 969.742188 636.441406 C 969.742188 637.804688 970.847656 638.90625 972.207031 638.90625 C 973.566406 638.90625 974.671875 637.804688 974.671875 636.441406 C 974.671875 635.082031 973.566406 633.980469 972.207031 633.980469 " fill="#FAFAFA"/>
<path d="M 929.996094 651.179688 C 926.449219 651.179688 923.570312 654.054688 923.570312 657.601562 C 923.570312 661.148438 926.449219 664.023438 929.996094 664.023438 C 933.542969 664.023438 936.417969 661.148438 936.417969 657.601562 C 936.417969 654.054688 933.542969 651.179688 929.996094 651.179688 " fill="#FAFAFA"/>
<path d="M 951.101562 655.136719 C 949.742188 655.136719 948.636719 656.242188 948.636719 657.601562 C 948.636719 658.960938 949.742188 660.066406 951.101562 660.066406 C 952.460938 660.066406 953.566406 658.960938 953.566406 657.601562 C 953.566406 656.242188 952.460938 655.136719 951.101562 655.136719 " fill="#FAFAFA"/>
<path d="M 972.207031 655.136719 C 970.847656 655.136719 969.742188 656.242188 969.742188 657.601562 C 969.742188 658.960938 970.847656 660.066406 972.207031 660.066406 C 973.566406 660.066406 974.671875 658.960938 974.671875 657.601562 C 974.671875 656.242188 973.566406 655.136719 972.207031 655.136719 " fill="#FAFAFA"/>
<path d="M 1085.097656 613.714844 L 1051.605469 545.449219 L 1017.832031 545.449219 L 1069.488281 651.351562 L 1055.496094 684.710938 L 1088.546875 684.710938 L 1144.96875 545.449219 L 1112.175781 545.449219 Z M 1085.097656 613.714844 " fill="#FAFAFA"/>
<path d="M 1238.9375 609.386719 C 1238.9375 609.386719 1226.789062 636.78125 1204.609375 628.984375 C 1193.925781 625.230469 1192.871094 610.996094 1192.722656 607.710938 L 1192.722656 545.480469 L 1158.933594 545.480469 L 1158.933594 619.953125 C 1158.957031 624.21875 1159.15625 629.648438 1160.042969 632.78125 C 1168.75 663.601562 1203.464844 657.714844 1209.414062 656.238281 C 1234.222656 650.097656 1243.421875 625.722656 1243.421875 625.722656 L 1243.421875 656.628906 L 1272.761719 656.628906 L 1272.761719 545.480469 L 1238.9375 545.480469 Z M 1238.9375 609.386719 " fill="#FAFAFA"/>
<path d="M 1502.835938 617.03125 L 1502.753906 617.214844 C 1500.589844 621.785156 1497.179688 625.632812 1492.902344 628.34375 L 1492.765625 628.429688 C 1489.539062 630.339844 1486.019531 631.546875 1482.300781 632.019531 C 1481.148438 632.164062 1479.996094 632.238281 1478.847656 632.238281 C 1476.292969 632.238281 1473.757812 631.875 1471.273438 631.15625 C 1467.671875 630.113281 1464.382812 628.371094 1461.496094 625.984375 C 1458.609375 623.59375 1456.285156 620.691406 1454.589844 617.351562 L 1454.5 617.164062 C 1452.203125 612.1875 1451.054688 606.664062 1451.175781 601.1875 C 1451.050781 595.703125 1452.199219 590.175781 1454.5 585.199219 C 1456.660156 580.570312 1460.078125 576.707031 1464.402344 574.003906 L 1464.492188 573.949219 C 1467.714844 572.023438 1471.238281 570.804688 1474.964844 570.324219 C 1478.691406 569.847656 1482.410156 570.132812 1486.011719 571.179688 C 1489.617188 572.222656 1492.910156 573.96875 1495.800781 576.367188 C 1498.6875 578.765625 1501.007812 581.679688 1502.695312 585.03125 L 1502.835938 585.335938 C 1505 590.371094 1506.097656 595.703125 1506.097656 601.183594 C 1506.097656 606.664062 1505 611.996094 1502.835938 617.03125 M 1525.324219 560.902344 C 1519.84375 555.394531 1513.367188 551.148438 1506.097656 548.308594 C 1488.417969 541.988281 1468.957031 541.992188 1451.28125 548.3125 C 1443.96875 551.136719 1437.460938 555.378906 1431.929688 560.925781 C 1426.769531 566.171875 1422.804688 572.34375 1420.175781 579.242188 C 1417.515625 586.289062 1416.179688 593.695312 1416.203125 601.238281 C 1416.171875 608.773438 1417.507812 616.121094 1420.175781 623.125 C 1422.914062 630.222656 1427.042969 636.566406 1432.445312 641.957031 C 1437.847656 647.355469 1444.207031 651.480469 1451.339844 654.226562 C 1460.035156 657.496094 1469.195312 659.074219 1478.523438 658.921875 L 1478.625 658.917969 L 1478.726562 658.921875 C 1488.105469 659.125 1497.3125 657.519531 1506.082031 654.210938 C 1513.332031 651.375 1519.824219 647.082031 1525.3125 641.476562 C 1530.480469 636.1875 1534.449219 630.003906 1537.105469 623.105469 C 1539.765625 616.121094 1541.101562 608.773438 1541.070312 601.28125 C 1541.097656 593.699219 1539.761719 586.296875 1537.097656 579.242188 C 1534.46875 572.339844 1530.507812 566.171875 1525.324219 560.902344 " fill="#FAFAFA"/>
<path d="M 1352.429688 545.839844 C 1327.621094 551.980469 1318.425781 576.355469 1318.425781 576.355469 L 1318.425781 545.449219 L 1289.082031 545.449219 L 1289.082031 656.597656 L 1322.90625 656.597656 L 1322.90625 592.691406 C 1322.90625 592.691406 1335.054688 565.296875 1357.234375 573.09375 C 1367.917969 576.847656 1368.972656 591.085938 1369.121094 594.367188 L 1369.121094 656.597656 L 1402.910156 656.597656 L 1402.910156 582.125 C 1402.886719 577.859375 1402.6875 572.429688 1401.800781 569.296875 C 1393.09375 538.476562 1358.378906 544.367188 1352.429688 545.839844 " fill="#FAFAFA"/>
<path d="M 1502.835938 617.03125 L 1502.753906 617.214844 C 1500.589844 621.785156 1497.179688 625.632812 1492.902344 628.34375 L 1492.765625 628.429688 C 1489.539062 630.339844 1486.019531 631.546875 1482.300781 632.019531 C 1481.148438 632.164062 1479.996094 632.238281 1478.847656 632.238281 C 1476.292969 632.238281 1473.757812 631.875 1471.273438 631.15625 C 1467.671875 630.113281 1464.382812 628.371094 1461.496094 625.984375 C 1458.609375 623.59375 1456.285156 620.691406 1454.589844 617.351562 L 1454.5 617.164062 C 1452.203125 612.1875 1451.054688 606.664062 1451.175781 601.1875 C 1451.050781 595.703125 1452.199219 590.175781 1454.5 585.199219 C 1456.660156 580.570312 1460.078125 576.707031 1464.402344 574.003906 L 1464.492188 573.949219 C 1467.714844 572.023438 1471.238281 570.804688 1474.964844 570.324219 C 1478.691406 569.847656 1482.410156 570.132812 1486.011719 571.179688 C 1489.617188 572.222656 1492.910156 573.96875 1495.800781 576.367188 C 1498.6875 578.765625 1501.007812 581.679688 1502.695312 585.03125 L 1502.835938 585.335938 C 1505 590.371094 1506.097656 595.703125 1506.097656 601.183594 C 1506.097656 606.664062 1505 611.996094 1502.835938 617.03125 M 1525.324219 560.902344 C 1519.84375 555.394531 1513.367188 551.148438 1506.097656 548.308594 C 1488.417969 541.988281 1468.957031 541.992188 1451.28125 548.3125 C 1443.96875 551.136719 1437.460938 555.378906 1431.929688 560.925781 C 1426.769531 566.171875 1422.804688 572.34375 1420.175781 579.242188 C 1417.515625 586.289062 1416.179688 593.695312 1416.203125 601.238281 C 1416.171875 608.773438 1417.507812 616.121094 1420.175781 623.125 C 1422.914062 630.222656 1427.042969 636.566406 1432.445312 641.957031 C 1437.847656 647.355469 1444.207031 651.480469 1451.339844 654.226562 C 1460.035156 657.496094 1469.195312 659.074219 1478.523438 658.921875 L 1478.625 658.917969 L 1478.726562 658.921875 C 1488.105469 659.125 1497.3125 657.519531 1506.082031 654.210938 C 1513.332031 651.375 1519.824219 647.082031 1525.3125 641.476562 C 1530.480469 636.1875 1534.449219 630.003906 1537.105469 623.105469 C 1539.765625 616.121094 1541.101562 608.773438 1541.070312 601.28125 C 1541.097656 593.699219 1539.761719 586.296875 1537.097656 579.242188 C 1534.46875 572.339844 1530.507812 566.171875 1525.324219 560.902344 " fill="#FAFAFA"/>
</svg>
