<svg width="179" height="28" viewBox="0 0 179 28" fill="none" xmlns="http://www.w3.org/2000/svg"><path fill-rule="evenodd" clip-rule="evenodd" d="M86.9546 22.438C85.1817 22.4686 83.4191 22.1637 81.76 21.5394C80.3738 21.0063 79.1152 20.1891 78.0653 19.1407C77.0153 18.0923 76.1975 16.8359 75.6645 15.4527C75.1497 14.1017 74.8889 12.6675 74.8951 11.2222C74.8902 9.76845 75.1509 8.32597 75.6645 6.96546C76.1766 5.6212 76.9625 4.39736 77.9725 3.37116C79.0473 2.29282 80.3378 1.45252 81.76 0.905009C85.1265 -0.30167 88.8091 -0.30167 92.1756 0.905009C93.5902 1.456 94.8736 2.29603 95.9434 3.37116C96.9534 4.39736 97.7392 5.6212 98.2514 6.96546C98.765 8.32597 99.0257 9.76845 99.0207 11.2222C99.0269 12.6675 98.7661 14.1017 98.2514 15.4527C97.7344 16.7946 96.9491 18.0175 95.9434 19.047C94.8785 20.1345 93.5943 20.9841 92.1756 21.5394C90.5085 22.1677 88.7364 22.4727 86.9546 22.438ZM83.0619 11.2091C83.0403 12.0455 83.2112 12.8757 83.5617 13.6359C83.8002 14.1055 84.1329 14.5212 84.5391 14.8573C84.9453 15.1934 85.4164 15.4427 85.9232 15.5896C86.43 15.7366 86.9616 15.7782 87.4852 15.7117C88.0087 15.6453 88.513 15.4723 88.9667 15.2035C89.5686 14.8224 90.0497 14.2788 90.3542 13.6359C90.6838 12.8691 90.8537 12.0434 90.8537 11.2091C90.8537 10.3748 90.6838 9.54912 90.3542 8.78228C90.1171 8.3113 89.7852 7.89417 89.3792 7.55699C88.9731 7.2198 88.5017 6.96982 87.9944 6.82269C87.487 6.67555 86.9547 6.63444 86.4307 6.70189C85.9068 6.76934 85.4024 6.94392 84.9491 7.21471C84.3444 7.5924 83.8624 8.13691 83.5617 8.78228C83.2105 9.54223 83.0395 10.3726 83.0619 11.2091ZM65.2158 22.0247H73.1985L73.1722 7.83119C73.1677 7.01358 73.0973 6.19764 72.9618 5.39127C72.819 4.49086 72.5232 3.62134 72.0872 2.82015C71.6151 1.97705 70.9188 1.28029 70.0751 0.806572C68.9629 0.237096 67.7206 -0.0319984 66.4717 0.0260563C65.2994 0.0159398 64.1305 0.154777 62.9933 0.439252C61.9961 0.681436 61.0469 1.08944 60.1856 1.64612C59.3914 2.16329 58.7075 2.83201 58.1734 3.6138V0.334327H51.0127V22.0247H58.9691V9.90382C59.2126 9.33592 59.553 8.81441 59.9751 8.36247C60.3679 7.93217 60.8358 7.57659 61.356 7.31303C61.7964 7.08046 62.2847 6.9525 62.7829 6.93917C63.0988 6.938 63.4117 7.0001 63.7031 7.12178C63.9945 7.24345 64.2585 7.42225 64.4794 7.64754C64.7495 7.9644 64.9538 8.33171 65.0802 8.72808C65.2066 9.12446 65.2527 9.54196 65.2158 9.95628V22.0247ZM34.5677 0.341064H26.6113V14.5412C26.6159 15.3588 26.6862 16.1747 26.8217 16.9811C26.9617 17.8822 27.2577 18.7522 27.6963 19.5522C28.1684 20.3953 28.8647 21.0921 29.7084 21.5658C30.8206 22.1353 32.0629 22.4044 33.3118 22.3463C34.4842 22.3564 35.653 22.2176 36.7902 21.9331C37.7875 21.6877 38.7365 21.2776 39.598 20.7197C40.3941 20.2049 41.0783 19.5357 41.6101 18.752V22.0315H48.7774V0.341064H40.8145V12.462C40.5685 13.0286 40.2284 13.5497 39.8084 14.0034C39.4127 14.4333 38.9428 14.7888 38.421 15.0528C37.9832 15.2862 37.4968 15.4142 37.0006 15.4266C36.6841 15.4281 36.3706 15.3655 36.079 15.2426C35.7874 15.1197 35.5238 14.9391 35.3042 14.7117C35.0336 14.3964 34.829 14.0303 34.7025 13.6349C34.576 13.2395 34.5302 12.8229 34.5677 12.4095V0.341064ZM12.8683 12.4291L17.3002 0.340966H25.25L14.2228 28H7.10156L9.52135 20.8245L0 0.340966L7.9498 0.321289L12.8683 12.4291ZM97.0151 0.714711V0.347412H98.6393V0.714711H98.0475V2.32166H97.6135V0.714711H97.0151ZM99.948 1.69877L99.4812 0.341064H98.8696V2.30875H99.2773V0.92482L99.7639 2.30875H100.099L100.586 0.911689V2.30875H101V0.341064H100.382L99.948 1.69877Z" fill="#3E4FE0"/><rect x="115" width="53" height="23" rx="3" fill="#D6DAF5"/><path d="M127.818 16H124.861V7.27273H127.878C128.744 7.27273 129.489 7.44744 130.111 7.79688C130.736 8.14347 131.216 8.64205 131.551 9.29261C131.886 9.94318 132.054 10.7216 132.054 11.6278C132.054 12.5369 131.885 13.3182 131.547 13.9716C131.212 14.625 130.727 15.1264 130.094 15.4759C129.463 15.8253 128.705 16 127.818 16ZM126.442 14.6321H127.741C128.349 14.6321 128.857 14.5213 129.263 14.2997C129.669 14.0753 129.974 13.7415 130.179 13.2983C130.384 12.8523 130.486 12.2955 130.486 11.6278C130.486 10.9602 130.384 10.4062 130.179 9.96591C129.974 9.52273 129.672 9.19176 129.271 8.97301C128.874 8.75142 128.379 8.64062 127.788 8.64062H126.442V14.6321ZM141.714 11.6364C141.714 12.5767 141.538 13.3821 141.186 14.0526C140.837 14.7202 140.359 15.2315 139.754 15.5866C139.152 15.9418 138.469 16.1193 137.704 16.1193C136.94 16.1193 136.256 15.9418 135.65 15.5866C135.048 15.2287 134.571 14.7159 134.219 14.0483C133.869 13.3778 133.695 12.5739 133.695 11.6364C133.695 10.696 133.869 9.89205 134.219 9.22443C134.571 8.55398 135.048 8.04119 135.65 7.68608C136.256 7.33097 136.94 7.15341 137.704 7.15341C138.469 7.15341 139.152 7.33097 139.754 7.68608C140.359 8.04119 140.837 8.55398 141.186 9.22443C141.538 9.89205 141.714 10.696 141.714 11.6364ZM140.125 11.6364C140.125 10.9744 140.021 10.4162 139.814 9.96165C139.609 9.50426 139.325 9.15909 138.962 8.92614C138.598 8.69034 138.179 8.57244 137.704 8.57244C137.23 8.57244 136.811 8.69034 136.447 8.92614C136.084 9.15909 135.798 9.50426 135.591 9.96165C135.386 10.4162 135.284 10.9744 135.284 11.6364C135.284 12.2983 135.386 12.858 135.591 13.3153C135.798 13.7699 136.084 14.1151 136.447 14.3509C136.811 14.5838 137.23 14.7003 137.704 14.7003C138.179 14.7003 138.598 14.5838 138.962 14.3509C139.325 14.1151 139.609 13.7699 139.814 13.3153C140.021 12.858 140.125 12.2983 140.125 11.6364ZM151.039 10.2173H149.445C149.4 9.95597 149.316 9.72443 149.194 9.52273C149.072 9.31818 148.92 9.14489 148.738 9.00284C148.556 8.8608 148.349 8.75426 148.116 8.68324C147.886 8.60938 147.637 8.57244 147.37 8.57244C146.896 8.57244 146.475 8.69176 146.109 8.9304C145.742 9.16619 145.455 9.51278 145.248 9.97017C145.041 10.4247 144.937 10.9801 144.937 11.6364C144.937 12.304 145.041 12.8665 145.248 13.3239C145.458 13.7784 145.745 14.1222 146.109 14.3551C146.475 14.5852 146.894 14.7003 147.366 14.7003C147.627 14.7003 147.872 14.6662 148.099 14.598C148.329 14.527 148.535 14.4233 148.717 14.2869C148.901 14.1506 149.056 13.983 149.181 13.7841C149.309 13.5852 149.397 13.358 149.445 13.1023L151.039 13.1108C150.98 13.5256 150.85 13.9148 150.651 14.2784C150.455 14.642 150.198 14.9631 149.88 15.2415C149.562 15.517 149.19 15.733 148.764 15.8892C148.338 16.0426 147.865 16.1193 147.345 16.1193C146.578 16.1193 145.893 15.9418 145.291 15.5866C144.688 15.2315 144.214 14.7188 143.867 14.0483C143.521 13.3778 143.347 12.5739 143.347 11.6364C143.347 10.696 143.522 9.89205 143.872 9.22443C144.221 8.55398 144.697 8.04119 145.299 7.68608C145.901 7.33097 146.583 7.15341 147.345 7.15341C147.83 7.15341 148.282 7.22159 148.7 7.35795C149.117 7.49432 149.49 7.6946 149.816 7.95881C150.143 8.22017 150.411 8.54119 150.622 8.92188C150.835 9.29972 150.974 9.73153 151.039 10.2173ZM157.59 9.67188C157.55 9.29972 157.383 9.00994 157.087 8.80256C156.794 8.59517 156.414 8.49148 155.945 8.49148C155.616 8.49148 155.333 8.54119 155.097 8.64062C154.861 8.74006 154.681 8.875 154.556 9.04545C154.431 9.21591 154.367 9.41051 154.364 9.62926C154.364 9.81108 154.405 9.96875 154.488 10.1023C154.573 10.2358 154.688 10.3494 154.833 10.4432C154.978 10.5341 155.138 10.6108 155.314 10.6733C155.491 10.7358 155.668 10.7884 155.847 10.831L156.665 11.0355C156.995 11.1122 157.312 11.2159 157.616 11.3466C157.922 11.4773 158.196 11.642 158.438 11.8409C158.682 12.0398 158.875 12.2798 159.017 12.5611C159.16 12.8423 159.231 13.1719 159.231 13.5497C159.231 14.0611 159.1 14.5114 158.839 14.9006C158.577 15.2869 158.199 15.5895 157.705 15.8082C157.214 16.0241 156.618 16.1321 155.919 16.1321C155.241 16.1321 154.651 16.027 154.151 15.8168C153.654 15.6065 153.265 15.2997 152.983 14.8963C152.705 14.4929 152.554 14.0014 152.532 13.4219H154.087C154.11 13.7259 154.204 13.9787 154.368 14.1804C154.533 14.3821 154.748 14.5327 155.012 14.6321C155.279 14.7315 155.577 14.7812 155.907 14.7812C156.25 14.7812 156.552 14.7301 156.81 14.6278C157.071 14.5227 157.276 14.3778 157.424 14.1932C157.571 14.0057 157.647 13.7869 157.65 13.5369C157.647 13.3097 157.58 13.1222 157.449 12.9744C157.319 12.8239 157.135 12.6989 156.9 12.5994C156.667 12.4972 156.394 12.4062 156.081 12.3267L155.089 12.071C154.37 11.8864 153.802 11.6065 153.384 11.2315C152.969 10.8537 152.762 10.3523 152.762 9.72727C152.762 9.21307 152.901 8.76278 153.179 8.37642C153.461 7.99006 153.843 7.69034 154.326 7.47727C154.809 7.26136 155.356 7.15341 155.966 7.15341C156.586 7.15341 157.128 7.26136 157.594 7.47727C158.063 7.69034 158.431 7.98722 158.698 8.3679C158.965 8.74574 159.103 9.1804 159.111 9.67188H157.59Z" fill="#3E4FE0"/></svg>