<svg xmlns="http://www.w3.org/2000/svg" fill="none" viewBox="453.12 0 1468.8 411.5384615384615" style="max-height: 500px" width="1468.8" height="411.5384615384615">
<g clip-path="url(#clip0_72_3405)">
<path fill="#3E4FE0" d="M37.8696 20C28.0088 20 20 28.0241 20 37.9036C20 47.7831 28.0088 55.8072 37.8696 55.8072C47.7304 55.8072 55.7392 47.7831 55.7392 37.9036C55.7392 28.0241 47.7304 20 37.8696 20Z"/>
<path fill="#3E4FE0" d="M96.6001 20.0012C86.7393 20.0012 78.7305 28.0253 78.7305 37.9048C78.7305 47.7843 86.7393 55.8084 96.6001 55.8084C106.461 55.8084 114.47 47.7843 114.47 37.9048C114.47 28.0253 106.461 20.0012 96.6001 20.0012Z"/>
<path fill="#3E4FE0" d="M155.331 44.7713C159.117 44.7713 162.185 41.6967 162.185 37.9039C162.185 34.1111 159.117 31.0364 155.331 31.0364C151.545 31.0364 148.477 34.1111 148.477 37.9039C148.477 41.6967 151.545 44.7713 155.331 44.7713Z"/>
<path fill="#3E4FE0" d="M37.8714 107.881C43.9283 107.881 48.8385 102.962 48.8385 96.8931C48.8385 90.8246 43.9283 85.9052 37.8714 85.9052C31.8144 85.9052 26.9043 90.8246 26.9043 96.8931C26.9043 102.962 31.8144 107.881 37.8714 107.881Z"/>
<path fill="#3E4FE0" d="M96.6001 78.9899C86.7393 78.9899 78.7305 87.0139 78.7305 96.8935C78.7305 106.773 86.7393 114.797 96.6001 114.797C106.461 114.797 114.47 106.773 114.47 96.8935C114.47 87.0139 106.461 78.9899 96.6001 78.9899Z"/>
<path fill="#3E4FE0" d="M155.332 107.881C161.393 107.881 166.299 102.965 166.299 96.8931C166.299 90.8208 161.393 85.9052 155.332 85.9052C149.272 85.9052 144.365 90.8208 144.365 96.8931C144.365 102.965 149.272 107.881 155.332 107.881Z"/>
<path fill="#3E4FE0" d="M37.87 148.845C34.0941 148.845 31.0156 151.929 31.0156 155.712C31.0156 159.495 34.0941 162.58 37.87 162.58C41.646 162.58 44.7245 159.495 44.7245 155.712C44.7245 151.929 41.646 148.845 37.87 148.845Z"/>
<path fill="#3E4FE0" d="M96.6001 137.809C86.7393 137.809 78.7305 145.834 78.7305 155.713C78.7305 165.593 86.7393 173.617 96.6001 173.617C106.461 173.617 114.47 165.593 114.47 155.713C114.47 145.834 106.461 137.809 96.6001 137.809Z"/>
<path fill="#3E4FE0" d="M155.331 137.809C145.47 137.809 137.461 145.834 137.461 155.713C137.461 165.593 145.47 173.617 155.331 173.617C165.191 173.617 173.2 165.593 173.2 155.713C173.2 145.834 165.191 137.809 155.331 137.809Z"/>
<path fill="#3E4FE0" d="M214.159 44.7713C217.935 44.7713 221.014 41.687 221.014 37.9039C221.014 34.1207 217.935 31.0364 214.159 31.0364C210.383 31.0364 207.305 34.1207 207.305 37.9039C207.305 41.687 210.383 44.7713 214.159 44.7713Z"/>
<path fill="#3E4FE0" d="M272.894 55.8084C282.763 55.8084 290.764 47.7927 290.764 37.9048C290.764 28.0169 282.763 20.0012 272.894 20.0012C263.025 20.0012 255.024 28.0169 255.024 37.9048C255.024 47.7927 263.025 55.8084 272.894 55.8084Z"/>
<path fill="#3E4FE0" d="M331.625 20.0012C321.764 20.0012 313.755 28.0253 313.755 37.9048C313.755 47.7843 321.764 55.8084 331.625 55.8084C341.485 55.8084 349.494 47.7843 349.494 37.9048C349.494 28.0253 341.485 20.0012 331.625 20.0012Z"/>
<path fill="#3E4FE0" d="M214.16 107.881C220.221 107.881 225.128 102.965 225.128 96.8931C225.128 90.8208 220.221 85.9052 214.16 85.9052C208.1 85.9052 203.193 90.8208 203.193 96.8931C203.193 102.965 208.1 107.881 214.16 107.881Z"/>
<path fill="#3E4FE0" d="M272.894 78.9899C263.033 78.9899 255.024 87.0139 255.024 96.8935C255.024 106.773 263.033 114.797 272.894 114.797C282.755 114.797 290.764 106.773 290.764 96.8935C290.764 87.0139 282.755 78.9899 272.894 78.9899Z"/>
<path fill="#3E4FE0" d="M331.626 85.9052C325.566 85.9052 320.659 90.8208 320.659 96.8931C320.659 102.965 325.566 107.881 331.626 107.881C337.687 107.881 342.593 102.965 342.593 96.8931C342.593 90.8208 337.687 85.9052 331.626 85.9052Z"/>
<path fill="#3E4FE0" d="M272.894 137.809C263.033 137.809 255.024 145.834 255.024 155.713C255.024 165.593 263.033 173.617 272.894 173.617C282.755 173.617 290.764 165.593 290.764 155.713C290.764 145.834 282.755 137.809 272.894 137.809Z"/>
<path fill="#3E4FE0" d="M331.625 162.58C335.411 162.58 338.479 159.505 338.479 155.712C338.479 151.919 335.411 148.845 331.625 148.845C327.839 148.845 324.771 151.919 324.771 155.712C324.771 159.505 327.839 162.58 331.625 162.58Z"/>
<path fill="#3E4FE0" d="M214.159 137.809C204.298 137.809 196.289 145.834 196.289 155.713C196.289 165.593 204.298 173.617 214.159 173.617C224.019 173.617 232.028 165.593 232.028 155.713C232.028 145.834 224.019 137.809 214.159 137.809Z"/>
<path fill="#3E4FE0" d="M37.87 207.689C34.0941 207.689 31.0156 210.773 31.0156 214.556C31.0156 218.339 34.0941 221.423 37.87 221.423C41.646 221.423 44.7245 218.339 44.7245 214.556C44.7245 210.773 41.646 207.689 37.87 207.689Z"/>
<path fill="#3E4FE0" d="M96.6018 203.566C90.5411 203.566 85.6348 208.482 85.6348 214.554C85.6348 220.627 90.5411 225.542 96.6018 225.542C102.663 225.542 107.569 220.627 107.569 214.554C107.569 208.482 102.663 203.566 96.6018 203.566Z"/>
<path fill="#3E4FE0" d="M155.331 196.651C145.47 196.651 137.461 204.675 137.461 214.555C137.461 224.434 145.47 232.458 155.331 232.458C165.191 232.458 173.2 224.434 173.2 214.555C173.2 204.675 165.191 196.651 155.331 196.651Z"/>
<path fill="#3E4FE0" d="M37.87 266.53C34.0941 266.53 31.0156 269.614 31.0156 273.398C31.0156 277.181 34.0941 280.265 37.87 280.265C41.646 280.265 44.7245 277.181 44.7245 273.398C44.7245 269.614 41.646 266.53 37.87 266.53Z"/>
<path fill="#3E4FE0" d="M96.6005 266.53C92.8246 266.53 89.7461 269.614 89.7461 273.398C89.7461 277.181 92.8246 280.265 96.6005 280.265C100.376 280.265 103.455 277.181 103.455 273.398C103.455 269.614 100.376 266.53 96.6005 266.53Z"/>
<path fill="#3E4FE0" d="M155.331 255.495C145.47 255.495 137.461 263.519 137.461 273.399C137.461 283.278 145.47 291.302 155.331 291.302C165.191 291.302 173.2 283.278 173.2 273.399C173.2 263.519 165.191 255.495 155.331 255.495Z"/>
<path fill="#3E4FE0" d="M37.87 325.519C34.0941 325.519 31.0156 328.603 31.0156 332.386C31.0156 336.169 34.0941 339.254 37.87 339.254C41.646 339.254 44.7245 336.169 44.7245 332.386C44.7245 328.603 41.646 325.519 37.87 325.519Z"/>
<path fill="#3E4FE0" d="M96.6005 339.254C100.386 339.254 103.455 336.179 103.455 332.386C103.455 328.594 100.386 325.519 96.6005 325.519C92.8149 325.519 89.7461 328.594 89.7461 332.386C89.7461 336.179 92.8149 339.254 96.6005 339.254Z"/>
<path fill="#3E4FE0" d="M155.331 314.484C145.47 314.484 137.461 322.508 137.461 332.387C137.461 342.267 145.47 350.291 155.331 350.291C165.191 350.291 173.2 342.267 173.2 332.387C173.2 322.508 165.191 314.484 155.331 314.484Z"/>
<path fill="#3E4FE0" d="M214.159 232.458C224.028 232.458 232.028 224.442 232.028 214.555C232.028 204.667 224.028 196.651 214.159 196.651C204.29 196.651 196.289 204.667 196.289 214.555C196.289 224.442 204.29 232.458 214.159 232.458Z"/>
<path fill="#3E4FE0" d="M272.891 203.566C266.83 203.566 261.924 208.482 261.924 214.554C261.924 220.627 266.83 225.542 272.891 225.542C278.952 225.542 283.858 220.627 283.858 214.554C283.858 208.482 278.952 203.566 272.891 203.566Z"/>
<path fill="#3E4FE0" d="M331.625 221.423C335.411 221.423 338.479 218.349 338.479 214.556C338.479 210.763 335.411 207.689 331.625 207.689C327.839 207.689 324.771 210.763 324.771 214.556C324.771 218.349 327.839 221.423 331.625 221.423Z"/>
<path fill="#3E4FE0" d="M214.159 291.302C224.028 291.302 232.028 283.286 232.028 273.399C232.028 263.511 224.028 255.495 214.159 255.495C204.29 255.495 196.289 263.511 196.289 273.399C196.289 283.286 204.29 291.302 214.159 291.302Z"/>
<path fill="#3E4FE0" d="M272.894 280.265C276.68 280.265 279.749 277.19 279.749 273.398C279.749 269.605 276.68 266.53 272.894 266.53C269.109 266.53 266.04 269.605 266.04 273.398C266.04 277.19 269.109 280.265 272.894 280.265Z"/>
<path fill="#3E4FE0" d="M331.625 280.265C335.411 280.265 338.479 277.19 338.479 273.398C338.479 269.605 335.411 266.53 331.625 266.53C327.839 266.53 324.771 269.605 324.771 273.398C324.771 277.19 327.839 280.265 331.625 280.265Z"/>
<path fill="#3E4FE0" d="M214.159 314.484C204.298 314.484 196.289 322.508 196.289 332.387C196.289 342.267 204.298 350.291 214.159 350.291C224.019 350.291 232.028 342.267 232.028 332.387C232.028 322.508 224.019 314.484 214.159 314.484Z"/>
<path fill="#3E4FE0" d="M272.894 339.254C276.68 339.254 279.749 336.179 279.749 332.386C279.749 328.594 276.68 325.519 272.894 325.519C269.109 325.519 266.04 328.594 266.04 332.386C266.04 336.179 269.109 339.254 272.894 339.254Z"/>
<path fill="#3E4FE0" d="M331.625 339.254C335.411 339.254 338.479 336.179 338.479 332.386C338.479 328.594 335.411 325.519 331.625 325.519C327.839 325.519 324.771 328.594 324.771 332.386C324.771 336.179 327.839 339.254 331.625 339.254Z"/>
<path fill="#3E4FE0" d="M648.466 198.795L555.27 8.48145H461.304L605.03 303.734L566.116 396.747H658.062L815.064 8.48145H723.816L648.466 198.795Z"/>
<path fill="#3E4FE0" d="M1076.57 186.747C1076.57 186.747 1042.75 263.132 981.039 241.397C951.312 230.939 948.378 191.229 947.969 182.096V8.602H853.955V216.216C854.027 228.12 854.58 243.253 857.034 251.976C881.253 337.903 977.864 321.47 994.411 317.373C1063.44 300.265 1089.03 232.289 1089.03 232.289V318.457H1170.68V8.57788H1076.57V186.747Z"/>
<path fill="#3E4FE0" d="M1873.46 51.5664C1858.21 36.217 1840.2 24.3856 1819.97 16.4579C1770.79 -1.15654 1716.63 -1.15654 1667.44 16.4579C1647.1 24.3374 1628.99 36.1688 1613.59 51.6387C1599.23 66.2652 1588.2 83.47 1580.88 102.699C1573.48 122.337 1569.75 142.988 1569.82 164.024C1569.72 185.036 1573.45 205.518 1580.88 225.036C1588.48 244.819 1599.98 262.506 1615.01 277.542C1630.04 292.578 1647.75 304.096 1667.59 311.735C1691.78 320.868 1717.28 325.253 1743.23 324.819H1743.51H1743.8C1769.9 325.398 1795.51 320.916 1819.92 311.687C1840.1 303.783 1858.16 291.807 1873.44 276.169C1887.82 261.422 1898.86 244.193 1906.27 224.964C1913.67 205.494 1917.38 185.012 1917.3 164.121C1917.38 142.988 1913.65 122.337 1906.24 102.675C1898.93 83.4459 1887.89 66.2411 1873.46 51.5423V51.5664ZM1810.88 208.048L1810.64 208.554C1804.6 221.301 1795.13 232.024 1783.22 239.59L1782.84 239.832C1773.87 245.157 1764.08 248.53 1753.71 249.831C1750.51 250.241 1747.29 250.434 1744.09 250.434C1737 250.434 1729.93 249.422 1723.02 247.422C1713.02 244.506 1703.86 239.663 1695.82 233.012C1687.79 226.362 1681.32 218.265 1676.61 208.94L1676.34 208.41C1669.97 194.53 1666.77 179.133 1667.08 163.88C1666.75 148.603 1669.94 133.181 1676.34 119.301C1682.35 106.386 1691.85 95.6146 1703.88 88.0965L1704.14 87.9278C1713.11 82.5543 1722.9 79.1567 1733.29 77.8314C1743.66 76.5061 1754 77.3013 1764.03 80.217C1774.06 83.1327 1783.22 88.0001 1791.26 94.6989C1799.29 101.374 1805.73 109.518 1810.45 118.844L1810.83 119.687C1816.85 133.735 1819.9 148.578 1819.9 163.88C1819.9 179.181 1816.85 194.024 1810.83 208.072L1810.88 208.048Z"/>
<path fill="#3E4FE0" d="M1392.35 9.56657C1323.33 26.675 1297.74 94.6509 1297.74 94.6509V8.48221H1216.08V318.362H1310.19V140.193C1310.19 140.193 1344.01 63.8075 1405.72 85.5425C1435.45 96.0003 1438.38 135.711 1438.79 144.844V318.338H1532.81V110.723C1532.73 98.8196 1532.18 83.687 1529.73 74.9641C1505.51 -10.9636 1408.9 5.47019 1392.35 9.56657Z"/>
</g>
<defs>
<clipPath id="clip0_72_3405">
<rect fill="white" height="400" width="1920"/>
</clipPath>
</defs>
</svg>