<svg xmlns="http://www.w3.org/2000/svg" viewBox="0 0 910 338" role="img" aria-label="Reconciliation: payments, settlement files and deposits are matched per store and acquirer into five outcomes" font-family="Inter, 'Helvetica Neue', Arial, sans-serif"><defs><marker id="f14-a" viewBox="0 0 10 10" refX="9" refY="5" markerWidth="7" markerHeight="7" orient="auto-start-reverse"><path d="M0 0L10 5 0 10z" fill="#6F7580"/></marker><marker id="f14-ag" viewBox="0 0 10 10" refX="9" refY="5" markerWidth="7" markerHeight="7" orient="auto-start-reverse"><path d="M0 0L10 5 0 10z" fill="#1F9E70"/></marker><marker id="f14-ad" viewBox="0 0 10 10" refX="9" refY="5" markerWidth="7" markerHeight="7" orient="auto-start-reverse"><path d="M0 0L10 5 0 10z" fill="#282A30"/></marker><marker id="f14-aa" viewBox="0 0 10 10" refX="9" refY="5" markerWidth="7" markerHeight="7" orient="auto-start-reverse"><path d="M0 0L10 5 0 10z" fill="#8A5A00"/></marker><marker id="f14-ar" viewBox="0 0 10 10" refX="9" refY="5" markerWidth="7" markerHeight="7" orient="auto-start-reverse"><path d="M0 0L10 5 0 10z" fill="#C43D3D"/></marker><marker id="f14-ab" viewBox="0 0 10 10" refX="9" refY="5" markerWidth="7" markerHeight="7" orient="auto-start-reverse"><path d="M0 0L10 5 0 10z" fill="#3E4FE0"/></marker></defs><rect x="0" y="0" width="910" height="338" rx="14" fill="#FFFFFF"/><rect x="24" y="50" width="200" height="62" rx="10" fill="#282A30" stroke="#282A30" stroke-width="1.4"/><text x="124" y="77.5" text-anchor="middle" font-size="13.5" font-weight="600" fill="#FFFFFF">In-person payments</text><text x="124" y="94.5" text-anchor="middle" font-size="11" font-weight="400" fill="#C7CBD3">recorded by Yuno Cloud</text><rect x="24" y="142" width="200" height="62" rx="10" fill="#FFFFFF" stroke="#D9DEE5" stroke-width="1.4"/><text x="124" y="169.5" text-anchor="middle" font-size="13.5" font-weight="600" fill="#282A30">Settlement files</text><text x="124" y="186.5" text-anchor="middle" font-size="11" font-weight="400" fill="#6F7580">each acquirer · daily · SFTP</text><rect x="24" y="234" width="200" height="62" rx="10" fill="#FFFFFF" stroke="#D9DEE5" stroke-width="1.4"/><text x="124" y="261.5" text-anchor="middle" font-size="13.5" font-weight="600" fill="#282A30">Bank deposits</text><text x="124" y="278.5" text-anchor="middle" font-size="11" font-weight="400" fill="#6F7580">your statement</text><path d="M224 81 L318 150" fill="none" stroke="#6F7580" stroke-width="1.5" marker-end="url(#f14-a)"/><path d="M224 173 L318 173" fill="none" stroke="#6F7580" stroke-width="1.5" marker-end="url(#f14-a)"/><path d="M224 265 L318 196" fill="none" stroke="#6F7580" stroke-width="1.5" marker-end="url(#f14-a)"/><rect x="320" y="130" width="220" height="86" rx="10" fill="#DEFFF3" stroke="#1F9E70" stroke-width="1.4"/><text x="430" y="161.5" text-anchor="middle" font-size="13.5" font-weight="600" fill="#0E6B4A">Matching</text><text x="430" y="178.5" text-anchor="middle" font-size="11" font-weight="400" fill="#0E6B4A">STAN · RRN · merchant ID · date</text><text x="430" y="194.5" text-anchor="middle" font-size="11" font-weight="400" fill="#0E6B4A">per store · per acquirer</text><rect x="650" y="20" width="236" height="50" rx="10" fill="#DEFFF3" stroke="#1F9E70" stroke-width="1.4"/><text x="768" y="41.5" text-anchor="middle" font-size="12.5" font-weight="600" fill="#0E6B4A">Matched</text><text x="768" y="58.5" text-anchor="middle" font-size="11" font-weight="400" fill="#0E6B4A">amount and status agree</text><path d="M540 173 L648 45" fill="none" stroke="#1F9E70" stroke-width="1.5" marker-end="url(#f14-ag)"/><rect x="650" y="82" width="236" height="50" rx="10" fill="#FFF3D6" stroke="#8A5A00" stroke-width="1.4"/><text x="768" y="103.5" text-anchor="middle" font-size="12.5" font-weight="600" fill="#8A5A00">Amount conflict</text><text x="768" y="120.5" text-anchor="middle" font-size="11" font-weight="400" fill="#8A5A00">settled for a different amount</text><path d="M540 173 L648 107" fill="none" stroke="#6F7580" stroke-width="1.5" marker-end="url(#f14-a)"/><rect x="650" y="144" width="236" height="50" rx="10" fill="#FFF3D6" stroke="#8A5A00" stroke-width="1.4"/><text x="768" y="165.5" text-anchor="middle" font-size="12.5" font-weight="600" fill="#8A5A00">Status conflict</text><text x="768" y="182.5" text-anchor="middle" font-size="11" font-weight="400" fill="#8A5A00">Yuno and acquirer disagree</text><path d="M540 173 L648 169" fill="none" stroke="#6F7580" stroke-width="1.5" marker-end="url(#f14-a)"/><rect x="650" y="206" width="236" height="50" rx="10" fill="#F4F6F9" stroke="#D9DEE5" stroke-width="1.4"/><text x="768" y="227.5" text-anchor="middle" font-size="12.5" font-weight="600" fill="#4B5059">Not settled</text><text x="768" y="244.5" text-anchor="middle" font-size="11" font-weight="400" fill="#6F7580">absent from the files so far</text><path d="M540 173 L648 231" fill="none" stroke="#6F7580" stroke-width="1.5" marker-end="url(#f14-a)"/><rect x="650" y="268" width="236" height="50" rx="10" fill="#F4F6F9" stroke="#D9DEE5" stroke-width="1.4"/><text x="768" y="289.5" text-anchor="middle" font-size="12.5" font-weight="600" fill="#4B5059">Not in Yuno</text><text x="768" y="306.5" text-anchor="middle" font-size="11" font-weight="400" fill="#6F7580">in the file, no sale in Yuno</text><path d="M540 173 L648 293" fill="none" stroke="#6F7580" stroke-width="1.5" marker-end="url(#f14-a)"/><text x="320" y="250" text-anchor="start" font-size="11.5" font-weight="400" fill="#4B5059">Target: more than 99 % matched</text><text x="320" y="266" text-anchor="start" font-size="11.5" font-weight="400" fill="#4B5059">without anyone touching them.</text></svg>